<svg id="Layer_1" data-name="Layer 1" xmlns="http://www.w3.org/2000/svg" viewBox="0 0 432.46 127.77" preserveAspectRatio="xMinYMid"><defs><style>.cls-1{fill:#fff;}.cls-1,.cls-2,.cls-3{fill-rule:evenodd;}.cls-2,.cls-5{fill:#231f20;}.cls-3{fill:#043266;}.cls-4{fill:#093266;}</style></defs><title>alza_hu</title><polygon class="cls-1" points="19.04 54.46 32.25 25.45 62.9 19.09 99.68 23.57 107.23 44.32 96.97 102.91 25.18 102.08 15.27 87.7 19.04 54.46"/><path class="cls-2" d="M113.89,271.1l40.93-9.28a33.62,33.62,0,0,0-14.13,16.51l26.82,2.22c1.23-5.34,7-8.3,12.15-8.3,6.84,0,8.92,4.71,7.26,10.37-19.3,0-45.53,3.86-53,24.17-2.55,7-1.93,15.57,3.77,20.92,3.86,3.62,9.65,5.28,16.73,5.28,9.58,0,22.19-3.51,27.56-12.15L181.13,329l0.44,2.82h28c-1.15-4.59-.57-10.21.15-14.82,1.14-6.59,2.78-13.55,4.17-20.55l10,44-89.65,20.32L113.89,271.1h0Zm72.62-16.46,17-3.86,1.5,6.64C199.5,255.23,192.72,254.71,186.5,254.63Z" transform="translate(-113.89 -232.98)"/><path class="cls-3" d="M124.43,253.3L214.08,233l20.32,89.65L209,328.38a49.51,49.51,0,0,1,.7-11.38c2.36-13.58,6.82-28.74,6.82-42.52,0-18.08-17.75-19.86-31.71-19.86-17.88,0-36.89,5.65-44.15,23.71l26.82,2.22c1.23-5.34,7-8.3,12.15-8.3,6.84,0,8.92,4.71,7.26,10.37-18,0-42.06,3.36-51.22,20.33L124.43,253.3h0Zm69.43,78.52H181.58L181.13,329l0.89-8.15c-5.37,8.64-18,12.15-27.56,12.15A28.94,28.94,0,0,1,142,330.58L144.76,343l49.1-11.13h0Zm-9-35.26c-6.78,0-16.1,2.25-19.78,8.62a7.81,7.81,0,0,0-1,6.19,6.67,6.67,0,0,0,1,2.45c2.3,3.19,9.53,1.58,12.43-.2C182.92,310.31,183.8,302.33,184.84,296.56Z" transform="translate(-113.89 -232.98)"/><path class="cls-4" d="M307,323.51H287.86q-0.11-1.46-.09-2.36c0-1.69.2-3.69,0.47-6q-6,9.5-16.3,9.49c-4.66,0-8.38-1.38-11.2-4.15a13.5,13.5,0,0,1-4.07-10.4,16.58,16.58,0,0,1,2.54-8.54,17.28,17.28,0,0,1,6.73-6.16,28.54,28.54,0,0,1,8.8-3c3-.48,8.81-1.14,17.48-2a10.29,10.29,0,0,0,.65-2.9c0.07-2.77-1.77-4.17-5.51-4.17s-6.45,1.9-8.29,5.67l-15.85-3.36q6.39-14.06,27-14.05,10.42,0,16.28,3.72a11.85,11.85,0,0,1,5.71,11q-0.08,3.25-4,23a71.72,71.72,0,0,0-1.56,9.75,23.13,23.13,0,0,0,.39,4.46h0Zm-16.67-24q-13.35,1.05-13.54,8.79-0.1,4.25,4.21,4.25a8.39,8.39,0,0,0,5.58-2.54q2.81-2.56,3.74-10.5h0Zm51.74-44.28h-18.6l-12.69,68.28h18.61l12.69-68.28h0Zm37.69,55.63-2.34,12.65H333.62l2.11-11.35,25-26.91H342.37L344.65,273h42.16L385,282.73l-26.29,28.12h21.07Zm52.12,12.65a23.12,23.12,0,0,1-.39-4.46A71.63,71.63,0,0,1,433,309.3q3.95-19.77,4-23a11.84,11.84,0,0,0-5.71-11q-5.86-3.71-16.28-3.72-20.59,0-27,14.05L404,289q2.77-5.66,8.29-5.67c3.74,0,5.57,1.4,5.51,4.17a10.29,10.29,0,0,1-.65,2.9c-8.67.82-14.51,1.49-17.48,2a28.53,28.53,0,0,0-8.8,3,17.28,17.28,0,0,0-6.73,6.16,16.58,16.58,0,0,0-2.54,8.54,13.5,13.5,0,0,0,4.07,10.4c2.81,2.77,6.53,4.15,11.2,4.15q10.32,0,16.3-9.49c-0.27,2.31-.43,4.3-0.47,6q0,0.9.09,2.36h19.13Zm-16.67-24q-0.94,7.94-3.74,10.5a8.39,8.39,0,0,1-5.58,2.54q-4.32,0-4.21-4.25Q401.84,300.56,415.2,299.5Z" transform="translate(-113.89 -232.98)"/><polygon class="cls-5" points="338.9 76.62 336.56 90.53 322.15 90.53 324.46 76.62 338.9 76.62"/><path class="cls-5" d="M479.23,271.09l-3.08,18.39a13.88,13.88,0,0,1,18.94-3.6q3.4,2.26,3.41,7.9A33.66,33.66,0,0,1,498,299l-4.1,24.46H479.15L483,300.58c0.33-1.93.5-3,.5-3.38,0-2.07-1.26-3.11-3.76-3.11a4.59,4.59,0,0,0-2.73.79,5.37,5.37,0,0,0-1.68,1.82,14.65,14.65,0,0,0-1,3.88l-3.8,22.93H455.72l8.76-52.42h14.75Z" transform="translate(-113.89 -232.98)"/><path class="cls-5" d="M546.34,284.72l-6.49,38.79H525.92l1.22-7.22q-4.64,8.26-12.9,8.26-5,0-7.77-2.69a8.8,8.8,0,0,1-2.82-6.65,43.6,43.6,0,0,1,.76-6.21l4-24.28h14.89l-3.72,22.19c-0.33,2.08-.5,3.34-0.5,3.8,0,1.93.89,2.88,2.65,2.88q5,0,6.65-9.67l3.22-19.2h14.71Z" transform="translate(-113.89 -232.98)"/></svg>