<svg width="24" height="24" xmlns="http://www.w3.org/2000/svg">
    <g fill-rule="nonzero" fill="none">
        <path d="M0 0h24v24H0z"/>
        <path d="M16.84 7.06c2.297 0 5.66 5.914 5.66 10.33 0 1.877-.902 3.11-2.14 3.11-1.536 0-2.704-.528-4.264-1.734l-.496-.394-.683-.55-.394-.305c-1.062-.801-1.685-1.078-2.523-1.078-.838 0-1.46.277-2.523 1.078l-.394.305-.899.724C6.48 19.908 5.266 20.5 3.64 20.5c-1.238 0-2.14-1.233-2.14-3.11 0-4.416 3.363-10.33 5.66-10.33.747 0 1.281.134 1.919.435l.474.24c.814.429 1.561.665 2.447.665.785 0 1.479-.193 2.183-.531l.494-.254C15.428 7.23 16 7.06 16.84 7.06z" fill="#ECF5FE"/>
        <path d="m15.93 1.31.09.005a.5.5 0 0 1 .428.563l-.063.463c-.216 1.572-.614 2.203-2.056 2.725l-.507.177c-1.022.376-1.268.694-1.313 1.76l-.009.362c.418-.06.819-.193 1.232-.389l.748-.379c.768-.365 1.443-.537 2.36-.537 3 0 6.66 6.435 6.66 11.33 0 2.374-1.27 4.11-3.14 4.11-1.805 0-3.154-.612-4.877-1.944l-.291-.229-.87-.702-.359-.277-.32-.235c-.706-.5-1.146-.674-1.643-.674-.452 0-.856.143-1.457.545l-.186.129-.32.235-.358.277-1.162.93C6.794 20.889 5.445 21.5 3.64 21.5 1.77 21.5.5 19.764.5 17.39c0-4.895 3.66-11.33 6.66-11.33.917 0 1.592.172 2.36.537l.26.13.492.25c.418.2.813.33 1.23.389l.005-.269c.06-1.635.523-2.275 2.114-2.843l.196-.068c1.094-.367 1.356-.636 1.528-1.653l.112-.79a.5.5 0 0 1 .473-.432zm.91 5.75c-.747 0-1.281.134-1.919.435l-.244.12-.494.254c-.704.338-1.398.53-2.183.53-.787 0-1.465-.186-2.178-.528l-.743-.376A4.119 4.119 0 0 0 7.16 7.06c-2.297 0-5.66 5.914-5.66 10.33 0 1.877.902 3.11 2.14 3.11 1.536 0 2.704-.528 4.264-1.734l.28-.22.899-.724.394-.305c1.062-.801 1.685-1.078 2.523-1.078.782 0 1.377.24 2.316.924l.207.154.394.305.683.55.496.394c1.56 1.206 2.728 1.734 4.264 1.734 1.238 0 2.14-1.233 2.14-3.11 0-4.416-3.363-10.33-5.66-10.33zM17 14a1 1 0 1 1 .001 1.999A1 1 0 0 1 17 14zm-9.5-4a.5.5 0 0 1 .5.5V12h1.5a.5.5 0 0 1 .5.5v1a.5.5 0 0 1-.5.5H7.999L8 15.5a.5.5 0 0 1-.5.5h-1a.5.5 0 0 1-.5-.5L5.999 14H4.5a.5.5 0 0 1-.5-.5v-1a.5.5 0 0 1 .5-.5H6v-1.5a.5.5 0 0 1 .5-.5h1zm7.5 2a1 1 0 1 1 .001 1.999A1 1 0 0 1 15 12zm4 0a1 1 0 1 1 .001 1.999A1 1 0 0 1 19 12zm-2-2a1 1 0 1 1 .001 1.999A1 1 0 0 1 17 10z" fill="#00275B"/>
    </g>
</svg>
