<svg width="24" height="24" viewBox="0 0 24 24" fill="none" xmlns="http://www.w3.org/2000/svg">
    <g clip-path="url(#mqrpoexrva)">
        <path d="M15 8h6v12h-6V8z" fill="#ECF5FE"/>
        <path d="M21 7h-6v1h6v3h-6v1h6v8h-6v1h4v1h2v-1h1V8a1 1 0 0 0-1-1z" fill="#00275B"/>
        <path fill-rule="evenodd" clip-rule="evenodd" d="M15 18.236a3 3 0 1 0 0-4.472v4.472zM15 16a2 2 0 1 1 4 0 2 2 0 0 1-4 0z" fill="#00275B"/>
        <path d="M15 10h2.5a.5.5 0 0 0 0-1H15v1zM19.5 9a.5.5 0 1 0 0 1 .5.5 0 0 0 0-1z" fill="#00275B"/>
        <path d="M4.5 1A.5.5 0 0 1 5 .5h8a.5.5 0 0 1 .5.5v20.5h-9V1z" stroke="#00275B"/>
        <path d="M5 1h8v20H5V1z" fill="#ECF5FE"/>
        <path fill="#00275B" d="M5 13h8v1H5z"/>
        <rect x="6" y="5" width="1" height="5" rx=".5" fill="#00275B"/>
        <rect x="6" y="15" width="1" height="3" rx=".5" fill="#00275B"/>
        <path fill="#00275B" d="M4 22h2v1H4zM12 22h2v1h-2z"/>
    </g>
    <defs>
        <clipPath id="mqrpoexrva">
            <path fill="#fff" d="M0 0h24v24H0z"/>
        </clipPath>
    </defs>
</svg>
