<svg width="24" height="24" xmlns="http://www.w3.org/2000/svg">
    <g fill-rule="nonzero" fill="none">
        <path d="M0 0h24v24H0z"/>
        <path d="M15.824 2c-.452 0-.876.182-1.192.504l-.113.128-.707.878-.654-.21a3.78 3.78 0 0 0-2.087-.064l-.225.064-.652.209-.687-.85-.099-.116A1.665 1.665 0 0 0 8.18 2a.615.615 0 0 0-.144.038l-.152.06a1.634 1.634 0 0 0-.157.08 2.837 2.837 0 0 0-.606.483c-.418.448-.514.622-.632 1.112-.052.219.026.51.251.817.091.125.21.25.342.36l.136.103 1.025.716-.14.65a4.52 4.52 0 0 0 .088 2.246l.08.24.387.996-5.294 2.792-.193.1-.136.073c-.264.151-.442.313-.546.494-.103.18-.111.432.016.712.117.26.32.412.52.442.168.026.347.006.55-.055l.157-.052.467-.184.569-.233 2.857-1.205-.186 4.302-.524.352c-.677.485-1.051 1.46-.888 2.494.221 1.394 1.313 2.323 2.367 2.156.46-.073.87-.343 1.155-.749l.09-.14.378-.672 3.97-.02.354.649c.302.52.755.85 1.27.932 1.055.167 2.146-.762 2.367-2.156.166-1.049-.222-2.031-.905-2.506l-.137-.086.487-.849-.957.014-.054-3.7 2.502 1.052 1.045.427.299.115c.286.107.513.146.723.114.199-.03.402-.183.52-.443.127-.279.119-.531.016-.71-.102-.178-.275-.337-.535-.488l-.138-.076-5.49-2.907.374-.969a4.544 4.544 0 0 0 .218-2.269l-.044-.233-.14-.65 1-.697.135-.101a2.05 2.05 0 0 0 .376-.391c.218-.297.296-.588.244-.805-.118-.492-.214-.666-.634-1.116a2.835 2.835 0 0 0-.604-.48 1.634 1.634 0 0 0-.158-.08l-.15-.061A.615.615 0 0 0 15.823 2z" fill="#ECF5FE"/>
        <path d="M12.355 21.528h-.905l-.845-.008.007-.014c-.426.829-1.16 1.428-2.063 1.57-1.636.26-3.208-1.077-3.51-2.987-.226-1.426.32-2.767 1.293-3.463l.129-.087.096-2.219-1.402.591-.577.237-.482.19c-.31.115-.743.238-1.224.165-.481-.074-1-.404-1.279-1.018-.27-.593-.225-1.182.028-1.622.22-.386.556-.659.916-.865l.156-.084.21-.109 4.5-2.373-.065-.165a5.52 5.52 0 0 1-.214-3.06l-.48-.335a3.062 3.062 0 0 1-.714-.695c-.368-.5-.546-1.085-.414-1.636.155-.65.33-.98.873-1.562.228-.246.531-.487.83-.663.31-.181.703-.316.96-.316.76 0 1.462.321 1.964.864l.121.14.277.344a4.78 4.78 0 0 1 2.923 0l.276-.343A2.67 2.67 0 0 1 15.824 1c.258 0 .651.135.96.316.3.176.603.417.83.662.544.583.718.913.874 1.564.131.55-.046 1.135-.41 1.63-.154.212-.346.41-.557.58l-.162.12-.48.336a5.52 5.52 0 0 1-.214 3.06l-.06.154 4.706 2.492c.417.215.82.508 1.072.949.253.44.297 1.029.028 1.622-.279.614-.798.944-1.28 1.018-.48.073-.914-.05-1.223-.165l-.31-.12-1.063-.435-1.102-.463.032 2.172-.03-.017c1.12.637 1.773 2.077 1.53 3.614-.302 1.91-1.874 3.247-3.51 2.988-.847-.134-1.545-.67-1.98-1.419l-.078-.142-1.042.012zm1.671-2.22c-.22 1.394.53 2.614 1.585 2.781 1.054.167 2.145-.762 2.366-2.156.221-1.395-.53-2.615-1.584-2.782-1.054-.167-2.146.762-2.367 2.156zM7.611 17.15c-1.054.167-1.805 1.387-1.585 2.782.221 1.394 1.313 2.323 2.367 2.156 1.054-.167 1.805-1.387 1.584-2.782-.22-1.394-1.312-2.323-2.366-2.156zM12 12.62c-1.628 0-3.074-.817-3.987-2.083l-.099-.141h-.202l-4.35 2.297-.212.11c-.33.17-.544.35-.663.557-.103.18-.111.432.016.712.117.26.32.412.52.442.168.026.347.006.55-.055l.157-.052.467-.184.569-.233 2.857-1.205-.146 3.375-.024.003c1.637-.26 3.209 1.078 3.51 2.988.08.503.064.996-.033 1.454l.016-.082.503.005h.893l.713-.009.019.093a3.986 3.986 0 0 1-.036-1.461c.292-1.844 1.767-3.154 3.341-3.01l.08.01-.049-3.346 2.504 1.053 1.134.463.208.08c.286.106.513.145.723.113.199-.03.402-.183.52-.443.127-.279.119-.531.016-.71-.102-.178-.275-.337-.536-.488l-.138-.076-4.585-2.429h-.15c-.904 1.361-2.405 2.252-4.105 2.252zm0-6a2.5 2.5 0 1 0 0 5 2.5 2.5 0 0 0 0-5zm0-3.5c-2.197 0-4 1.892-4 4.25 0 .666.145 1.295.4 1.855l.117.234-.012-.168-.004-.171c0-1.222.627-2.299 1.576-2.924a.75.75 0 1 1 1.394-.535 3.504 3.504 0 0 1 1.46.085l.077.022a.75.75 0 1 1 1.236.667 3.487 3.487 0 0 1 1.24 3.025 4.43 4.43 0 0 0 .517-2.09c0-2.358-1.802-4.25-4-4.25zm0 4a1 1 0 1 1 0 2 1 1 0 0 1 0-2zM8.18 2l-.118.03-.154.058c-.057.024-.12.054-.181.09a2.836 2.836 0 0 0-.605.482c-.345.37-.471.575-.552.816l-.028.093-.053.205c-.053.223.038.526.248.811.127.175.299.34.48.468a5.334 5.334 0 0 1 2.27-2.42A1.672 1.672 0 0 0 8.179 2zm7.645 0c-.532 0-.998.25-1.306.632a5.334 5.334 0 0 1 2.269 2.42c.182-.127.354-.292.481-.467.18-.245.272-.502.262-.71l-.014-.101-.053-.205c-.08-.286-.192-.493-.58-.909a2.836 2.836 0 0 0-.605-.481 1.69 1.69 0 0 0-.335-.149l-.058-.017-.06-.013z" fill="#00275B"/>
        <path d="M12 13.5c1.608 0 2.972 1.237 3.378 2.948l.042.2-.982.185c-.26-1.366-1.28-2.333-2.438-2.333-1.124 0-2.116.91-2.411 2.207l-.036.18-.986-.172C8.888 14.869 10.308 13.5 12 13.5z" fill="#00275B"/>
    </g>
</svg>
