<svg width="24" height="24" xmlns="http://www.w3.org/2000/svg">
    <g fill="none" fill-rule="evenodd">
        <path d="M0 0h24v24H0z"/>
        <path d="M11.667 2c.693 0 1.262.529 1.327 1.205l.006.128V9.93l-.021.127-.084.076-.195.19a5.98 5.98 0 0 0-.7.864V3H3v13h8.19a5.951 5.951 0 0 0 1.432 2.596c-.211.218-.497.364-.816.397l-.14.007H3.334a1.333 1.333 0 0 1-1.327-1.205L2 17.667V3.333c0-.693.529-1.262 1.205-1.327L3.333 2h8.334zM8.5 17h-2a.5.5 0 1 0 0 1h2a.5.5 0 1 0 0-1z" fill="#00275B"/>
        <path d="M12 3v8.186a5.953 5.953 0 0 0-.993 3.014l-.007.3.006.265.018.278c.03.326.085.646.166.958L3 16V3h9z" fill="#ECF5FE" fill-rule="nonzero"/>
        <path d="M22 14.5a4.985 4.985 0 0 0-1.9-3.919L19.5 7h-5l-.594 3.581A4.963 4.963 0 0 0 12 14.5c0 1.594.744 3.006 1.906 3.919L14.5 22h5l.6-3.581A4.985 4.985 0 0 0 22 14.5zm-9 0c0-2.207 1.793-4 4-4s4 1.793 4 4-1.793 4-4 4-4-1.793-4-4z" fill="#00275B"/>
        <circle fill="#ECF5FE" fill-rule="nonzero" cx="17" cy="14.5" r="4"/>
    </g>
</svg>
